solid OpenSCAD_Model
  facet normal 0.989687 -0.0974723 -0.104967
    outer loop
      vertex 2.79524 -0.556007 0
      vertex 2.5 0 -3.3
      vertex 2.85 0 0
    endloop
  endfacet
  facet normal -0.0974723 0.989687 -0.104967
    outer loop
      vertex 0 2.5 -3.3
      vertex -0.556007 2.79524 0
      vertex 0 2.85 0
    endloop
  endfacet
  facet normal -0.951655 0.288677 -0.104968
    outer loop
      vertex -2.45196 0.487725 -3.3
      vertex -2.79524 0.556007 0
      vertex -2.63306 1.09065 0
    endloop
  endfacet
  facet normal 0.630882 -0.768746 -0.104966
    outer loop
      vertex 1.58337 -2.36969 0
      vertex 1.38893 -2.07867 -3.3
      vertex 1.76777 -1.76777 -3.3
    endloop
  endfacet
  facet normal 0.768736 -0.630895 -0.104964
    outer loop
      vertex 2.01525 -2.01525 0
      vertex 1.76777 -1.76777 -3.3
      vertex 2.36969 -1.58337 0
    endloop
  endfacet
  facet normal 0.630895 0.768736 -0.104964
    outer loop
      vertex 1.76777 1.76777 -3.3
      vertex 1.58337 2.36969 0
      vertex 2.01525 2.01525 0
    endloop
  endfacet
  facet normal -0.0974822 -0.989686 -0.104968
    outer loop
      vertex 0 -2.5 -3.3
      vertex -0.556007 -2.79524 0
      vertex -0.487725 -2.45196 -3.3
    endloop
  endfacet
  facet normal -0.951656 0.288673 -0.104968
    outer loop
      vertex -2.45196 0.487725 -3.3
      vertex -2.63306 1.09065 0
      vertex -2.3097 0.956708 -3.3
    endloop
  endfacet
  facet normal 0.877047 -0.468797 -0.104968
    outer loop
      vertex 2.63306 -1.09065 0
      vertex 2.07867 -1.38893 -3.3
      vertex 2.3097 -0.956708 -3.3
    endloop
  endfacet
  facet normal -0.989687 -0.0974723 -0.104967
    outer loop
      vertex -2.79524 -0.556007 0
      vertex -2.85 0 0
      vertex -2.5 0 -3.3
    endloop
  endfacet
  facet normal -0.877045 -0.4688 -0.104967
    outer loop
      vertex -2.36969 -1.58337 0
      vertex -2.63306 -1.09065 0
      vertex -2.07867 -1.38893 -3.3
    endloop
  endfacet
  facet normal -0.768736 0.630895 -0.104964
    outer loop
      vertex -1.76777 1.76777 -3.3
      vertex -2.36969 1.58337 0
      vertex -2.01525 2.01525 0
    endloop
  endfacet
  facet normal 0 0 1
    outer loop
      vertex 1 0 0
      vertex 2.85 0 0
      vertex 2.79524 0.556007 0
    endloop
  endfacet
  facet normal 0 0 1
    outer loop
      vertex 0.980784 0.19509 0
      vertex 2.79524 0.556007 0
      vertex 2.63306 1.09065 0
    endloop
  endfacet
  facet normal 0 0 1
    outer loop
      vertex 2.85 0 0
      vertex 1 0 0
      vertex 2.79524 -0.556007 0
    endloop
  endfacet
  facet normal 0 0 1
    outer loop
      vertex 0.923879 0.382683 0
      vertex 2.63306 1.09065 0
      vertex 2.36969 1.58337 0
    endloop
  endfacet
  facet normal -0 0 1
    outer loop
      vertex 0.980784 -0.19509 0
      vertex 2.79524 -0.556007 0
      vertex 1 0 0
    endloop
  endfacet
  facet normal 0 0 1
    outer loop
      vertex 0.83147 0.55557 0
      vertex 2.36969 1.58337 0
      vertex 2.01525 2.01525 0
    endloop
  endfacet
  facet normal 0 0 1
    outer loop
      vertex 2.79524 -0.556007 0
      vertex 0.980784 -0.19509 0
      vertex 2.63306 -1.09065 0
    endloop
  endfacet
  facet normal 0 0 1
    outer loop
      vertex 0.707107 0.707107 0
      vertex 2.01525 2.01525 0
      vertex 1.58337 2.36969 0
    endloop
  endfacet
  facet normal -0 0 1
    outer loop
      vertex 0.923879 -0.382683 0
      vertex 2.63306 -1.09065 0
      vertex 0.980784 -0.19509 0
    endloop
  endfacet
  facet normal 0 0 1
    outer loop
      vertex 0.55557 0.83147 0
      vertex 1.58337 2.36969 0
      vertex 1.09065 2.63306 0
    endloop
  endfacet
  facet normal 0 0 1
    outer loop
      vertex 2.63306 -1.09065 0
      vertex 0.923879 -0.382683 0
      vertex 2.36969 -1.58337 0
    endloop
  endfacet
  facet normal -0 0 1
    outer loop
      vertex 0.83147 -0.55557 0
      vertex 2.36969 -1.58337 0
      vertex 0.923879 -0.382683 0
    endloop
  endfacet
  facet normal 0 0 1
    outer loop
      vertex 2.79524 0.556007 0
      vertex 0.980784 0.19509 0
      vertex 1 0 0
    endloop
  endfacet
  facet normal 0 0 1
    outer loop
      vertex 2.63306 1.09065 0
      vertex 0.923879 0.382683 0
      vertex 0.980784 0.19509 0
    endloop
  endfacet
  facet normal 0 0 1
    outer loop
      vertex 2.36969 1.58337 0
      vertex 0.83147 0.55557 0
      vertex 0.923879 0.382683 0
    endloop
  endfacet
  facet normal 0 0 1
    outer loop
      vertex 2.01525 2.01525 0
      vertex 0.707107 0.707107 0
      vertex 0.83147 0.55557 0
    endloop
  endfacet
  facet normal 0 0 1
    outer loop
      vertex 0.382683 0.923879 0
      vertex 1.09065 2.63306 0
      vertex 0.556007 2.79524 0
    endloop
  endfacet
  facet normal 0 0 1
    outer loop
      vertex 1.58337 2.36969 0
      vertex 0.55557 0.83147 0
      vertex 0.707107 0.707107 0
    endloop
  endfacet
  facet normal 0 0 1
    outer loop
      vertex 1.09065 2.63306 0
      vertex 0.382683 0.923879 0
      vertex 0.55557 0.83147 0
    endloop
  endfacet
  facet normal 0 0 1
    outer loop
      vertex 0.556007 2.79524 0
      vertex 0.19509 0.980784 0
      vertex 0.382683 0.923879 0
    endloop
  endfacet
  facet normal 0 0 1
    outer loop
      vertex 0 2.85 0
      vertex 0.19509 0.980784 0
      vertex 0.556007 2.79524 0
    endloop
  endfacet
  facet normal 0 0 1
    outer loop
      vertex 0 2.85 0
      vertex 0 1 0
      vertex 0.19509 0.980784 0
    endloop
  endfacet
  facet normal 0 0 1
    outer loop
      vertex 0 2.85 0
      vertex -0.19509 0.980784 0
      vertex 0 1 0
    endloop
  endfacet
  facet normal -0 0 1
    outer loop
      vertex -0.556007 2.79524 0
      vertex -0.19509 0.980784 0
      vertex 0 2.85 0
    endloop
  endfacet
  facet normal 0 0 1
    outer loop
      vertex -0.19509 0.980784 0
      vertex -0.556007 2.79524 0
      vertex -0.382683 0.923879 0
    endloop
  endfacet
  facet normal -0 0 1
    outer loop
      vertex -1.09065 2.63306 0
      vertex -0.382683 0.923879 0
      vertex -0.556007 2.79524 0
    endloop
  endfacet
  facet normal 0 0 1
    outer loop
      vertex -0.382683 0.923879 0
      vertex -1.09065 2.63306 0
      vertex -0.55557 0.83147 0
    endloop
  endfacet
  facet normal -0 0 1
    outer loop
      vertex -1.58337 2.36969 0
      vertex -0.55557 0.83147 0
      vertex -1.09065 2.63306 0
    endloop
  endfacet
  facet normal 0 0 1
    outer loop
      vertex -0.55557 0.83147 0
      vertex -1.58337 2.36969 0
      vertex -0.707107 0.707107 0
    endloop
  endfacet
  facet normal -0 0 1
    outer loop
      vertex -2.01525 2.01525 0
      vertex -0.707107 0.707107 0
      vertex -1.58337 2.36969 0
    endloop
  endfacet
  facet normal -0 0 1
    outer loop
      vertex -2.36969 1.58337 0
      vertex -0.83147 0.55557 0
      vertex -2.01525 2.01525 0
    endloop
  endfacet
  facet normal 0 0 1
    outer loop
      vertex -0.707107 0.707107 0
      vertex -2.01525 2.01525 0
      vertex -0.83147 0.55557 0
    endloop
  endfacet
  facet normal 0 0 1
    outer loop
      vertex 2.36969 -1.58337 0
      vertex 0.83147 -0.55557 0
      vertex 2.01525 -2.01525 0
    endloop
  endfacet
  facet normal -0 0 1
    outer loop
      vertex 0.707107 -0.707107 0
      vertex 2.01525 -2.01525 0
      vertex 0.83147 -0.55557 0
    endloop
  endfacet
  facet normal 0 0 1
    outer loop
      vertex 2.01525 -2.01525 0
      vertex 0.707107 -0.707107 0
      vertex 1.58337 -2.36969 0
    endloop
  endfacet
  facet normal -0 0 1
    outer loop
      vertex 0.55557 -0.83147 0
      vertex 1.58337 -2.36969 0
      vertex 0.707107 -0.707107 0
    endloop
  endfacet
  facet normal 0 0 1
    outer loop
      vertex 1.58337 -2.36969 0
      vertex 0.55557 -0.83147 0
      vertex 1.09065 -2.63306 0
    endloop
  endfacet
  facet normal -0 0 1
    outer loop
      vertex 0.382683 -0.923879 0
      vertex 1.09065 -2.63306 0
      vertex 0.55557 -0.83147 0
    endloop
  endfacet
  facet normal 0 0 1
    outer loop
      vertex 1.09065 -2.63306 0
      vertex 0.382683 -0.923879 0
      vertex 0.556007 -2.79524 0
    endloop
  endfacet
  facet normal -0 0 1
    outer loop
      vertex 0.19509 -0.980784 0
      vertex 0.556007 -2.79524 0
      vertex 0.382683 -0.923879 0
    endloop
  endfacet
  facet normal -0 0 1
    outer loop
      vertex 0 -1 0
      vertex 0.556007 -2.79524 0
      vertex 0.19509 -0.980784 0
    endloop
  endfacet
  facet normal 0 0 1
    outer loop
      vertex 0 -1 0
      vertex 0 -2.85 0
      vertex 0.556007 -2.79524 0
    endloop
  endfacet
  facet normal 0 0 1
    outer loop
      vertex -0.19509 -0.980784 0
      vertex 0 -2.85 0
      vertex 0 -1 0
    endloop
  endfacet
  facet normal 0 0 1
    outer loop
      vertex -0.556007 -2.79524 0
      vertex -0.19509 -0.980784 0
      vertex -0.382683 -0.923879 0
    endloop
  endfacet
  facet normal 0 0 1
    outer loop
      vertex -1.09065 -2.63306 0
      vertex -0.382683 -0.923879 0
      vertex -0.55557 -0.83147 0
    endloop
  endfacet
  facet normal 0 0 1
    outer loop
      vertex -0.19509 -0.980784 0
      vertex -0.556007 -2.79524 0
      vertex 0 -2.85 0
    endloop
  endfacet
  facet normal 0 0 1
    outer loop
      vertex -1.58337 -2.36969 0
      vertex -0.55557 -0.83147 0
      vertex -0.707107 -0.707107 0
    endloop
  endfacet
  facet normal 0 0 1
    outer loop
      vertex -2.01525 -2.01525 0
      vertex -0.707107 -0.707107 0
      vertex -0.83147 -0.55557 0
    endloop
  endfacet
  facet normal 0 0 1
    outer loop
      vertex -2.36969 -1.58337 0
      vertex -0.83147 -0.55557 0
      vertex -0.923879 -0.382683 0
    endloop
  endfacet
  facet normal 0 0 1
    outer loop
      vertex -2.63306 -1.09065 0
      vertex -0.923879 -0.382683 0
      vertex -0.980784 -0.19509 0
    endloop
  endfacet
  facet normal 0 0 1
    outer loop
      vertex -0.382683 -0.923879 0
      vertex -1.09065 -2.63306 0
      vertex -0.556007 -2.79524 0
    endloop
  endfacet
  facet normal 0 0 1
    outer loop
      vertex -2.79524 -0.556007 0
      vertex -0.980784 -0.19509 0
      vertex -1 0 0
    endloop
  endfacet
  facet normal 0 0 1
    outer loop
      vertex -0.83147 0.55557 0
      vertex -2.36969 1.58337 0
      vertex -0.923879 0.382683 0
    endloop
  endfacet
  facet normal -0 0 1
    outer loop
      vertex -2.63306 1.09065 0
      vertex -0.923879 0.382683 0
      vertex -2.36969 1.58337 0
    endloop
  endfacet
  facet normal 0 0 1
    outer loop
      vertex -0.55557 -0.83147 0
      vertex -1.58337 -2.36969 0
      vertex -1.09065 -2.63306 0
    endloop
  endfacet
  facet normal 0 0 1
    outer loop
      vertex -0.923879 0.382683 0
      vertex -2.63306 1.09065 0
      vertex -0.980784 0.19509 0
    endloop
  endfacet
  facet normal 0 0 1
    outer loop
      vertex -0.707107 -0.707107 0
      vertex -2.01525 -2.01525 0
      vertex -1.58337 -2.36969 0
    endloop
  endfacet
  facet normal -0 0 1
    outer loop
      vertex -2.79524 0.556007 0
      vertex -0.980784 0.19509 0
      vertex -2.63306 1.09065 0
    endloop
  endfacet
  facet normal 0 0 1
    outer loop
      vertex -0.83147 -0.55557 0
      vertex -2.36969 -1.58337 0
      vertex -2.01525 -2.01525 0
    endloop
  endfacet
  facet normal 0 0 1
    outer loop
      vertex -0.980784 0.19509 0
      vertex -2.79524 0.556007 0
      vertex -1 0 0
    endloop
  endfacet
  facet normal 0 0 1
    outer loop
      vertex -0.923879 -0.382683 0
      vertex -2.63306 -1.09065 0
      vertex -2.36969 -1.58337 0
    endloop
  endfacet
  facet normal 0 0 1
    outer loop
      vertex -2.85 0 0
      vertex -1 0 0
      vertex -2.79524 0.556007 0
    endloop
  endfacet
  facet normal 0 0 1
    outer loop
      vertex -0.980784 -0.19509 0
      vertex -2.79524 -0.556007 0
      vertex -2.63306 -1.09065 0
    endloop
  endfacet
  facet normal 0 0 1
    outer loop
      vertex -1 0 0
      vertex -2.85 0 0
      vertex -2.79524 -0.556007 0
    endloop
  endfacet
  facet normal 0.0974822 0.989686 -0.104968
    outer loop
      vertex 0.487725 2.45196 -3.3
      vertex 0 2.5 -3.3
      vertex 0.556007 2.79524 0
    endloop
  endfacet
  facet normal 0.0974723 -0.989687 -0.104967
    outer loop
      vertex 0 -2.85 0
      vertex 0 -2.5 -3.3
      vertex 0.556007 -2.79524 0
    endloop
  endfacet
  facet normal 0.989686 -0.0974822 -0.104968
    outer loop
      vertex 2.79524 -0.556007 0
      vertex 2.45196 -0.487725 -3.3
      vertex 2.5 0 -3.3
    endloop
  endfacet
  facet normal 0.989687 0.0974723 -0.104967
    outer loop
      vertex 2.85 0 0
      vertex 2.5 0 -3.3
      vertex 2.79524 0.556007 0
    endloop
  endfacet
  facet normal 0 0 -1
    outer loop
      vertex 1 0 -3.3
      vertex 2.5 0 -3.3
      vertex 2.45196 -0.487725 -3.3
    endloop
  endfacet
  facet normal 0 0 -1
    outer loop
      vertex 0.980784 -0.19509 -3.3
      vertex 2.45196 -0.487725 -3.3
      vertex 2.3097 -0.956708 -3.3
    endloop
  endfacet
  facet normal 0 0 -1
    outer loop
      vertex 2.5 0 -3.3
      vertex 1 0 -3.3
      vertex 2.45196 0.487725 -3.3
    endloop
  endfacet
  facet normal 0 0 -1
    outer loop
      vertex 0.923879 -0.382683 -3.3
      vertex 2.3097 -0.956708 -3.3
      vertex 2.07867 -1.38893 -3.3
    endloop
  endfacet
  facet normal 0 0 -1
    outer loop
      vertex 0.980784 0.19509 -3.3
      vertex 2.45196 0.487725 -3.3
      vertex 1 0 -3.3
    endloop
  endfacet
  facet normal 0 0 -1
    outer loop
      vertex 0.83147 -0.55557 -3.3
      vertex 2.07867 -1.38893 -3.3
      vertex 1.76777 -1.76777 -3.3
    endloop
  endfacet
  facet normal -0 0 -1
    outer loop
      vertex 2.45196 0.487725 -3.3
      vertex 0.980784 0.19509 -3.3
      vertex 2.3097 0.956708 -3.3
    endloop
  endfacet
  facet normal 0 0 -1
    outer loop
      vertex 0.707107 -0.707107 -3.3
      vertex 1.76777 -1.76777 -3.3
      vertex 1.38893 -2.07867 -3.3
    endloop
  endfacet
  facet normal 0 0 -1
    outer loop
      vertex 0.923879 0.382683 -3.3
      vertex 2.3097 0.956708 -3.3
      vertex 0.980784 0.19509 -3.3
    endloop
  endfacet
  facet normal -0 0 -1
    outer loop
      vertex 2.3097 0.956708 -3.3
      vertex 0.923879 0.382683 -3.3
      vertex 2.07867 1.38893 -3.3
    endloop
  endfacet
  facet normal 0 0 -1
    outer loop
      vertex 2.45196 -0.487725 -3.3
      vertex 0.980784 -0.19509 -3.3
      vertex 1 0 -3.3
    endloop
  endfacet
  facet normal 0 0 -1
    outer loop
      vertex 0.55557 -0.83147 -3.3
      vertex 1.38893 -2.07867 -3.3
      vertex 0.956708 -2.3097 -3.3
    endloop
  endfacet
  facet normal 0 0 -1
    outer loop
      vertex 2.3097 -0.956708 -3.3
      vertex 0.923879 -0.382683 -3.3
      vertex 0.980784 -0.19509 -3.3
    endloop
  endfacet
  facet normal 0 0 -1
    outer loop
      vertex 2.07867 -1.38893 -3.3
      vertex 0.83147 -0.55557 -3.3
      vertex 0.923879 -0.382683 -3.3
    endloop
  endfacet
  facet normal 0 0 -1
    outer loop
      vertex 1.76777 -1.76777 -3.3
      vertex 0.707107 -0.707107 -3.3
      vertex 0.83147 -0.55557 -3.3
    endloop
  endfacet
  facet normal 0 0 -1
    outer loop
      vertex 1.38893 -2.07867 -3.3
      vertex 0.55557 -0.83147 -3.3
      vertex 0.707107 -0.707107 -3.3
    endloop
  endfacet
  facet normal 0 0 -1
    outer loop
      vertex 0.382683 -0.923879 -3.3
      vertex 0.956708 -2.3097 -3.3
      vertex 0.487725 -2.45196 -3.3
    endloop
  endfacet
  facet normal 0 0 -1
    outer loop
      vertex 0.956708 -2.3097 -3.3
      vertex 0.382683 -0.923879 -3.3
      vertex 0.55557 -0.83147 -3.3
    endloop
  endfacet
  facet normal 0 0 -1
    outer loop
      vertex 0.487725 -2.45196 -3.3
      vertex 0.19509 -0.980784 -3.3
      vertex 0.382683 -0.923879 -3.3
    endloop
  endfacet
  facet normal 0 0 -1
    outer loop
      vertex 0 -2.5 -3.3
      vertex 0.19509 -0.980784 -3.3
      vertex 0.487725 -2.45196 -3.3
    endloop
  endfacet
  facet normal 0 0 -1
    outer loop
      vertex 0 -2.5 -3.3
      vertex 0 -1 -3.3
      vertex 0.19509 -0.980784 -3.3
    endloop
  endfacet
  facet normal 0 0 -1
    outer loop
      vertex 0 -2.5 -3.3
      vertex -0.19509 -0.980784 -3.3
      vertex 0 -1 -3.3
    endloop
  endfacet
  facet normal 0 0 -1
    outer loop
      vertex -0.487725 -2.45196 -3.3
      vertex -0.19509 -0.980784 -3.3
      vertex 0 -2.5 -3.3
    endloop
  endfacet
  facet normal -0 0 -1
    outer loop
      vertex -0.19509 -0.980784 -3.3
      vertex -0.487725 -2.45196 -3.3
      vertex -0.382683 -0.923879 -3.3
    endloop
  endfacet
  facet normal 0 0 -1
    outer loop
      vertex -0.956708 -2.3097 -3.3
      vertex -0.382683 -0.923879 -3.3
      vertex -0.487725 -2.45196 -3.3
    endloop
  endfacet
  facet normal -0 0 -1
    outer loop
      vertex -0.382683 -0.923879 -3.3
      vertex -0.956708 -2.3097 -3.3
      vertex -0.55557 -0.83147 -3.3
    endloop
  endfacet
  facet normal 0 0 -1
    outer loop
      vertex -1.38893 -2.07867 -3.3
      vertex -0.55557 -0.83147 -3.3
      vertex -0.956708 -2.3097 -3.3
    endloop
  endfacet
  facet normal -0 0 -1
    outer loop
      vertex -0.55557 -0.83147 -3.3
      vertex -1.38893 -2.07867 -3.3
      vertex -0.707107 -0.707107 -3.3
    endloop
  endfacet
  facet normal 0 0 -1
    outer loop
      vertex -1.76777 -1.76777 -3.3
      vertex -0.707107 -0.707107 -3.3
      vertex -1.38893 -2.07867 -3.3
    endloop
  endfacet
  facet normal -0 0 -1
    outer loop
      vertex -0.707107 -0.707107 -3.3
      vertex -1.76777 -1.76777 -3.3
      vertex -0.83147 -0.55557 -3.3
    endloop
  endfacet
  facet normal 0 0 -1
    outer loop
      vertex -2.07867 -1.38893 -3.3
      vertex -0.83147 -0.55557 -3.3
      vertex -1.76777 -1.76777 -3.3
    endloop
  endfacet
  facet normal -0 0 -1
    outer loop
      vertex -0.83147 -0.55557 -3.3
      vertex -2.07867 -1.38893 -3.3
      vertex -0.923879 -0.382683 -3.3
    endloop
  endfacet
  facet normal 0 0 -1
    outer loop
      vertex 0.83147 0.55557 -3.3
      vertex 2.07867 1.38893 -3.3
      vertex 0.923879 0.382683 -3.3
    endloop
  endfacet
  facet normal -0 0 -1
    outer loop
      vertex 2.07867 1.38893 -3.3
      vertex 0.83147 0.55557 -3.3
      vertex 1.76777 1.76777 -3.3
    endloop
  endfacet
  facet normal 0 0 -1
    outer loop
      vertex 0.707107 0.707107 -3.3
      vertex 1.76777 1.76777 -3.3
      vertex 0.83147 0.55557 -3.3
    endloop
  endfacet
  facet normal -0 0 -1
    outer loop
      vertex 1.76777 1.76777 -3.3
      vertex 0.707107 0.707107 -3.3
      vertex 1.38893 2.07867 -3.3
    endloop
  endfacet
  facet normal 0 0 -1
    outer loop
      vertex 0.55557 0.83147 -3.3
      vertex 1.38893 2.07867 -3.3
      vertex 0.707107 0.707107 -3.3
    endloop
  endfacet
  facet normal -0 0 -1
    outer loop
      vertex 1.38893 2.07867 -3.3
      vertex 0.55557 0.83147 -3.3
      vertex 0.956708 2.3097 -3.3
    endloop
  endfacet
  facet normal 0 0 -1
    outer loop
      vertex 0.382683 0.923879 -3.3
      vertex 0.956708 2.3097 -3.3
      vertex 0.55557 0.83147 -3.3
    endloop
  endfacet
  facet normal -0 0 -1
    outer loop
      vertex 0.956708 2.3097 -3.3
      vertex 0.382683 0.923879 -3.3
      vertex 0.487725 2.45196 -3.3
    endloop
  endfacet
  facet normal 0 0 -1
    outer loop
      vertex 0.19509 0.980784 -3.3
      vertex 0.487725 2.45196 -3.3
      vertex 0.382683 0.923879 -3.3
    endloop
  endfacet
  facet normal 0 0 -1
    outer loop
      vertex 0 1 -3.3
      vertex 0.487725 2.45196 -3.3
      vertex 0.19509 0.980784 -3.3
    endloop
  endfacet
  facet normal 0 0 -1
    outer loop
      vertex 0 1 -3.3
      vertex 0 2.5 -3.3
      vertex 0.487725 2.45196 -3.3
    endloop
  endfacet
  facet normal 0 0 -1
    outer loop
      vertex -0.19509 0.980784 -3.3
      vertex 0 2.5 -3.3
      vertex 0 1 -3.3
    endloop
  endfacet
  facet normal 0 0 -1
    outer loop
      vertex -0.487725 2.45196 -3.3
      vertex -0.19509 0.980784 -3.3
      vertex -0.382683 0.923879 -3.3
    endloop
  endfacet
  facet normal 0 0 -1
    outer loop
      vertex -0.19509 0.980784 -3.3
      vertex -0.487725 2.45196 -3.3
      vertex 0 2.5 -3.3
    endloop
  endfacet
  facet normal 0 0 -1
    outer loop
      vertex -0.956708 2.3097 -3.3
      vertex -0.382683 0.923879 -3.3
      vertex -0.55557 0.83147 -3.3
    endloop
  endfacet
  facet normal 0 0 -1
    outer loop
      vertex -1.38893 2.07867 -3.3
      vertex -0.55557 0.83147 -3.3
      vertex -0.707107 0.707107 -3.3
    endloop
  endfacet
  facet normal 0 0 -1
    outer loop
      vertex -1.76777 1.76777 -3.3
      vertex -0.707107 0.707107 -3.3
      vertex -0.83147 0.55557 -3.3
    endloop
  endfacet
  facet normal 0 0 -1
    outer loop
      vertex -2.07867 1.38893 -3.3
      vertex -0.83147 0.55557 -3.3
      vertex -0.923879 0.382683 -3.3
    endloop
  endfacet
  facet normal 0 0 -1
    outer loop
      vertex -0.382683 0.923879 -3.3
      vertex -0.956708 2.3097 -3.3
      vertex -0.487725 2.45196 -3.3
    endloop
  endfacet
  facet normal 0 0 -1
    outer loop
      vertex -2.3097 0.956708 -3.3
      vertex -0.923879 0.382683 -3.3
      vertex -0.980784 0.19509 -3.3
    endloop
  endfacet
  facet normal 0 0 -1
    outer loop
      vertex -2.45196 0.487725 -3.3
      vertex -0.980784 0.19509 -3.3
      vertex -1 0 -3.3
    endloop
  endfacet
  facet normal 0 0 -1
    outer loop
      vertex -2.3097 -0.956708 -3.3
      vertex -0.923879 -0.382683 -3.3
      vertex -2.07867 -1.38893 -3.3
    endloop
  endfacet
  facet normal 0 0 -1
    outer loop
      vertex -0.55557 0.83147 -3.3
      vertex -1.38893 2.07867 -3.3
      vertex -0.956708 2.3097 -3.3
    endloop
  endfacet
  facet normal -0 0 -1
    outer loop
      vertex -0.923879 -0.382683 -3.3
      vertex -2.3097 -0.956708 -3.3
      vertex -0.980784 -0.19509 -3.3
    endloop
  endfacet
  facet normal 0 0 -1
    outer loop
      vertex -0.707107 0.707107 -3.3
      vertex -1.76777 1.76777 -3.3
      vertex -1.38893 2.07867 -3.3
    endloop
  endfacet
  facet normal 0 0 -1
    outer loop
      vertex -2.45196 -0.487725 -3.3
      vertex -0.980784 -0.19509 -3.3
      vertex -2.3097 -0.956708 -3.3
    endloop
  endfacet
  facet normal 0 0 -1
    outer loop
      vertex -0.83147 0.55557 -3.3
      vertex -2.07867 1.38893 -3.3
      vertex -1.76777 1.76777 -3.3
    endloop
  endfacet
  facet normal -0 0 -1
    outer loop
      vertex -0.980784 -0.19509 -3.3
      vertex -2.45196 -0.487725 -3.3
      vertex -1 0 -3.3
    endloop
  endfacet
  facet normal 0 0 -1
    outer loop
      vertex -0.923879 0.382683 -3.3
      vertex -2.3097 0.956708 -3.3
      vertex -2.07867 1.38893 -3.3
    endloop
  endfacet
  facet normal 0 0 -1
    outer loop
      vertex -2.5 0 -3.3
      vertex -1 0 -3.3
      vertex -2.45196 -0.487725 -3.3
    endloop
  endfacet
  facet normal 0 0 -1
    outer loop
      vertex -0.980784 0.19509 -3.3
      vertex -2.45196 0.487725 -3.3
      vertex -2.3097 0.956708 -3.3
    endloop
  endfacet
  facet normal 0 0 -1
    outer loop
      vertex -1 0 -3.3
      vertex -2.5 0 -3.3
      vertex -2.45196 0.487725 -3.3
    endloop
  endfacet
  facet normal -0.989686 -0.0974822 -0.104968
    outer loop
      vertex -2.45196 -0.487725 -3.3
      vertex -2.79524 -0.556007 0
      vertex -2.5 0 -3.3
    endloop
  endfacet
  facet normal -0.989686 0.0974822 -0.104968
    outer loop
      vertex -2.5 0 -3.3
      vertex -2.79524 0.556007 0
      vertex -2.45196 0.487725 -3.3
    endloop
  endfacet
  facet normal -0.989687 0.0974723 -0.104967
    outer loop
      vertex -2.5 0 -3.3
      vertex -2.85 0 0
      vertex -2.79524 0.556007 0
    endloop
  endfacet
  facet normal -0.768746 0.630882 -0.104966
    outer loop
      vertex -2.07867 1.38893 -3.3
      vertex -2.36969 1.58337 0
      vertex -1.76777 1.76777 -3.3
    endloop
  endfacet
  facet normal -0.630882 0.768746 -0.104966
    outer loop
      vertex -1.38893 2.07867 -3.3
      vertex -1.76777 1.76777 -3.3
      vertex -1.58337 2.36969 0
    endloop
  endfacet
  facet normal -0.288673 0.951656 -0.104968
    outer loop
      vertex -0.956708 2.3097 -3.3
      vertex -1.09065 2.63306 0
      vertex -0.487725 2.45196 -3.3
    endloop
  endfacet
  facet normal -0.4688 0.877045 -0.104967
    outer loop
      vertex -1.38893 2.07867 -3.3
      vertex -1.58337 2.36969 0
      vertex -1.09065 2.63306 0
    endloop
  endfacet
  facet normal -0.630895 0.768736 -0.104964
    outer loop
      vertex -1.76777 1.76777 -3.3
      vertex -2.01525 2.01525 0
      vertex -1.58337 2.36969 0
    endloop
  endfacet
  facet normal 0.288677 0.951655 -0.104968
    outer loop
      vertex 1.09065 2.63306 0
      vertex 0.487725 2.45196 -3.3
      vertex 0.556007 2.79524 0
    endloop
  endfacet
  facet normal 0.0974723 0.989687 -0.104967
    outer loop
      vertex 0 2.5 -3.3
      vertex 0 2.85 0
      vertex 0.556007 2.79524 0
    endloop
  endfacet
  facet normal 0.4688 0.877045 -0.104967
    outer loop
      vertex 1.38893 2.07867 -3.3
      vertex 1.09065 2.63306 0
      vertex 1.58337 2.36969 0
    endloop
  endfacet
  facet normal 0.630882 0.768746 -0.104966
    outer loop
      vertex 1.76777 1.76777 -3.3
      vertex 1.38893 2.07867 -3.3
      vertex 1.58337 2.36969 0
    endloop
  endfacet
  facet normal 0.877047 0.468797 -0.104968
    outer loop
      vertex 2.3097 0.956708 -3.3
      vertex 2.07867 1.38893 -3.3
      vertex 2.63306 1.09065 0
    endloop
  endfacet
  facet normal 0.768736 0.630895 -0.104964
    outer loop
      vertex 2.36969 1.58337 0
      vertex 1.76777 1.76777 -3.3
      vertex 2.01525 2.01525 0
    endloop
  endfacet
  facet normal 0.951656 0.288673 -0.104968
    outer loop
      vertex 2.45196 0.487725 -3.3
      vertex 2.3097 0.956708 -3.3
      vertex 2.63306 1.09065 0
    endloop
  endfacet
  facet normal -0.0974723 -0.989687 -0.104967
    outer loop
      vertex 0 -2.85 0
      vertex -0.556007 -2.79524 0
      vertex 0 -2.5 -3.3
    endloop
  endfacet
  facet normal 0.288673 -0.951656 -0.104968
    outer loop
      vertex 1.09065 -2.63306 0
      vertex 0.487725 -2.45196 -3.3
      vertex 0.956708 -2.3097 -3.3
    endloop
  endfacet
  facet normal 0.468797 -0.877047 -0.104968
    outer loop
      vertex 1.09065 -2.63306 0
      vertex 0.956708 -2.3097 -3.3
      vertex 1.38893 -2.07867 -3.3
    endloop
  endfacet
  facet normal 0.4688 -0.877045 -0.104967
    outer loop
      vertex 1.58337 -2.36969 0
      vertex 1.09065 -2.63306 0
      vertex 1.38893 -2.07867 -3.3
    endloop
  endfacet
  facet normal 0.288677 -0.951655 -0.104968
    outer loop
      vertex 0.556007 -2.79524 0
      vertex 0.487725 -2.45196 -3.3
      vertex 1.09065 -2.63306 0
    endloop
  endfacet
  facet normal 0.0974822 -0.989686 -0.104968
    outer loop
      vertex 0.556007 -2.79524 0
      vertex 0 -2.5 -3.3
      vertex 0.487725 -2.45196 -3.3
    endloop
  endfacet
  facet normal 0.630895 -0.768736 -0.104964
    outer loop
      vertex 2.01525 -2.01525 0
      vertex 1.58337 -2.36969 0
      vertex 1.76777 -1.76777 -3.3
    endloop
  endfacet
  facet normal 0.877045 -0.4688 -0.104967
    outer loop
      vertex 2.36969 -1.58337 0
      vertex 2.07867 -1.38893 -3.3
      vertex 2.63306 -1.09065 0
    endloop
  endfacet
  facet normal 0.768746 -0.630882 -0.104966
    outer loop
      vertex 2.36969 -1.58337 0
      vertex 1.76777 -1.76777 -3.3
      vertex 2.07867 -1.38893 -3.3
    endloop
  endfacet
  facet normal 0.951656 -0.288673 -0.104968
    outer loop
      vertex 2.63306 -1.09065 0
      vertex 2.3097 -0.956708 -3.3
      vertex 2.45196 -0.487725 -3.3
    endloop
  endfacet
  facet normal 0.951655 -0.288677 -0.104968
    outer loop
      vertex 2.63306 -1.09065 0
      vertex 2.45196 -0.487725 -3.3
      vertex 2.79524 -0.556007 0
    endloop
  endfacet
  facet normal -0.951655 -0.288677 -0.104968
    outer loop
      vertex -2.63306 -1.09065 0
      vertex -2.79524 -0.556007 0
      vertex -2.45196 -0.487725 -3.3
    endloop
  endfacet
  facet normal -0.288673 -0.951656 -0.104968
    outer loop
      vertex -0.487725 -2.45196 -3.3
      vertex -1.09065 -2.63306 0
      vertex -0.956708 -2.3097 -3.3
    endloop
  endfacet
  facet normal -0.288677 -0.951655 -0.104968
    outer loop
      vertex -0.556007 -2.79524 0
      vertex -1.09065 -2.63306 0
      vertex -0.487725 -2.45196 -3.3
    endloop
  endfacet
  facet normal -0.630882 -0.768746 -0.104966
    outer loop
      vertex -1.58337 -2.36969 0
      vertex -1.76777 -1.76777 -3.3
      vertex -1.38893 -2.07867 -3.3
    endloop
  endfacet
  facet normal -0.768736 -0.630895 -0.104964
    outer loop
      vertex -2.01525 -2.01525 0
      vertex -2.36969 -1.58337 0
      vertex -1.76777 -1.76777 -3.3
    endloop
  endfacet
  facet normal -0.877047 0.468797 -0.104968
    outer loop
      vertex -2.3097 0.956708 -3.3
      vertex -2.63306 1.09065 0
      vertex -2.07867 1.38893 -3.3
    endloop
  endfacet
  facet normal -0.877045 0.4688 -0.104967
    outer loop
      vertex -2.07867 1.38893 -3.3
      vertex -2.63306 1.09065 0
      vertex -2.36969 1.58337 0
    endloop
  endfacet
  facet normal -0.288677 0.951655 -0.104968
    outer loop
      vertex -0.487725 2.45196 -3.3
      vertex -1.09065 2.63306 0
      vertex -0.556007 2.79524 0
    endloop
  endfacet
  facet normal -0.0974822 0.989686 -0.104968
    outer loop
      vertex -0.487725 2.45196 -3.3
      vertex -0.556007 2.79524 0
      vertex 0 2.5 -3.3
    endloop
  endfacet
  facet normal -0.468797 0.877047 -0.104968
    outer loop
      vertex -0.956708 2.3097 -3.3
      vertex -1.38893 2.07867 -3.3
      vertex -1.09065 2.63306 0
    endloop
  endfacet
  facet normal 0.288673 0.951656 -0.104968
    outer loop
      vertex 0.956708 2.3097 -3.3
      vertex 0.487725 2.45196 -3.3
      vertex 1.09065 2.63306 0
    endloop
  endfacet
  facet normal 0.468797 0.877047 -0.104968
    outer loop
      vertex 1.38893 2.07867 -3.3
      vertex 0.956708 2.3097 -3.3
      vertex 1.09065 2.63306 0
    endloop
  endfacet
  facet normal 0.768746 0.630882 -0.104966
    outer loop
      vertex 2.07867 1.38893 -3.3
      vertex 1.76777 1.76777 -3.3
      vertex 2.36969 1.58337 0
    endloop
  endfacet
  facet normal 0.877045 0.4688 -0.104967
    outer loop
      vertex 2.63306 1.09065 0
      vertex 2.07867 1.38893 -3.3
      vertex 2.36969 1.58337 0
    endloop
  endfacet
  facet normal 0.951655 0.288677 -0.104968
    outer loop
      vertex 2.79524 0.556007 0
      vertex 2.45196 0.487725 -3.3
      vertex 2.63306 1.09065 0
    endloop
  endfacet
  facet normal 0.989686 0.0974822 -0.104968
    outer loop
      vertex 2.5 0 -3.3
      vertex 2.45196 0.487725 -3.3
      vertex 2.79524 0.556007 0
    endloop
  endfacet
  facet normal -0.768746 -0.630882 -0.104966
    outer loop
      vertex -1.76777 -1.76777 -3.3
      vertex -2.36969 -1.58337 0
      vertex -2.07867 -1.38893 -3.3
    endloop
  endfacet
  facet normal -0.468797 -0.877047 -0.104968
    outer loop
      vertex -1.09065 -2.63306 0
      vertex -1.38893 -2.07867 -3.3
      vertex -0.956708 -2.3097 -3.3
    endloop
  endfacet
  facet normal -0.4688 -0.877045 -0.104967
    outer loop
      vertex -1.09065 -2.63306 0
      vertex -1.58337 -2.36969 0
      vertex -1.38893 -2.07867 -3.3
    endloop
  endfacet
  facet normal -0.630895 -0.768736 -0.104964
    outer loop
      vertex -1.58337 -2.36969 0
      vertex -2.01525 -2.01525 0
      vertex -1.76777 -1.76777 -3.3
    endloop
  endfacet
  facet normal -0.877047 -0.468797 -0.104968
    outer loop
      vertex -2.07867 -1.38893 -3.3
      vertex -2.63306 -1.09065 0
      vertex -2.3097 -0.956708 -3.3
    endloop
  endfacet
  facet normal -0.951656 -0.288673 -0.104968
    outer loop
      vertex -2.3097 -0.956708 -3.3
      vertex -2.63306 -1.09065 0
      vertex -2.45196 -0.487725 -3.3
    endloop
  endfacet
  facet normal -0.634393 0.773011 0
    outer loop
      vertex 0.707107 -0.707107 -3.3
      vertex 0.55557 -0.83147 0
      vertex 0.707107 -0.707107 0
    endloop
  endfacet
  facet normal -0.634393 0.773011 0
    outer loop
      vertex 0.55557 -0.83147 0
      vertex 0.707107 -0.707107 -3.3
      vertex 0.55557 -0.83147 -3.3
    endloop
  endfacet
  facet normal 0.956941 0.290281 0
    outer loop
      vertex -0.923879 -0.382683 0
      vertex -0.980784 -0.19509 -3.3
      vertex -0.980784 -0.19509 0
    endloop
  endfacet
  facet normal 0.956941 0.290281 0
    outer loop
      vertex -0.980784 -0.19509 -3.3
      vertex -0.923879 -0.382683 0
      vertex -0.923879 -0.382683 -3.3
    endloop
  endfacet
  facet normal -0.995184 -0.0980238 0
    outer loop
      vertex 1 0 -3.3
      vertex 0.980784 0.19509 0
      vertex 0.980784 0.19509 -3.3
    endloop
  endfacet
  facet normal -0.995184 -0.0980238 0
    outer loop
      vertex 0.980784 0.19509 0
      vertex 1 0 -3.3
      vertex 1 0 0
    endloop
  endfacet
  facet normal 0.290281 -0.956941 0
    outer loop
      vertex -0.382683 0.923879 -3.3
      vertex -0.19509 0.980784 0
      vertex -0.382683 0.923879 0
    endloop
  endfacet
  facet normal 0.290281 -0.956941 0
    outer loop
      vertex -0.19509 0.980784 0
      vertex -0.382683 0.923879 -3.3
      vertex -0.19509 0.980784 -3.3
    endloop
  endfacet
  facet normal -0.773011 0.634393 0
    outer loop
      vertex 0.707107 -0.707107 -3.3
      vertex 0.83147 -0.55557 0
      vertex 0.83147 -0.55557 -3.3
    endloop
  endfacet
  facet normal -0.773011 0.634393 0
    outer loop
      vertex 0.83147 -0.55557 0
      vertex 0.707107 -0.707107 -3.3
      vertex 0.707107 -0.707107 0
    endloop
  endfacet
  facet normal 0.290281 0.956941 -0
    outer loop
      vertex -0.19509 -0.980784 -3.3
      vertex -0.382683 -0.923879 0
      vertex -0.19509 -0.980784 0
    endloop
  endfacet
  facet normal 0.290281 0.956941 0
    outer loop
      vertex -0.382683 -0.923879 0
      vertex -0.19509 -0.980784 -3.3
      vertex -0.382683 -0.923879 -3.3
    endloop
  endfacet
  facet normal 0.881923 0.471393 0
    outer loop
      vertex -0.83147 -0.55557 0
      vertex -0.923879 -0.382683 -3.3
      vertex -0.923879 -0.382683 0
    endloop
  endfacet
  facet normal 0.881923 0.471393 0
    outer loop
      vertex -0.923879 -0.382683 -3.3
      vertex -0.83147 -0.55557 0
      vertex -0.83147 -0.55557 -3.3
    endloop
  endfacet
  facet normal -0.881923 0.471393 0
    outer loop
      vertex 0.83147 -0.55557 -3.3
      vertex 0.923879 -0.382683 0
      vertex 0.923879 -0.382683 -3.3
    endloop
  endfacet
  facet normal -0.881923 0.471393 0
    outer loop
      vertex 0.923879 -0.382683 0
      vertex 0.83147 -0.55557 -3.3
      vertex 0.83147 -0.55557 0
    endloop
  endfacet
  facet normal -0.471393 0.881923 0
    outer loop
      vertex 0.55557 -0.83147 -3.3
      vertex 0.382683 -0.923879 0
      vertex 0.55557 -0.83147 0
    endloop
  endfacet
  facet normal -0.471393 0.881923 0
    outer loop
      vertex 0.382683 -0.923879 0
      vertex 0.55557 -0.83147 -3.3
      vertex 0.382683 -0.923879 -3.3
    endloop
  endfacet
  facet normal -0.0980238 0.995184 0
    outer loop
      vertex 0.19509 -0.980784 -3.3
      vertex 0 -1 0
      vertex 0.19509 -0.980784 0
    endloop
  endfacet
  facet normal -0.0980238 0.995184 0
    outer loop
      vertex 0 -1 0
      vertex 0.19509 -0.980784 -3.3
      vertex 0 -1 -3.3
    endloop
  endfacet
  facet normal 0.995184 0.0980238 0
    outer loop
      vertex -0.980784 -0.19509 0
      vertex -1 0 -3.3
      vertex -1 0 0
    endloop
  endfacet
  facet normal 0.995184 0.0980238 0
    outer loop
      vertex -1 0 -3.3
      vertex -0.980784 -0.19509 0
      vertex -0.980784 -0.19509 -3.3
    endloop
  endfacet
  facet normal 0.773011 0.634393 0
    outer loop
      vertex -0.707107 -0.707107 0
      vertex -0.83147 -0.55557 -3.3
      vertex -0.83147 -0.55557 0
    endloop
  endfacet
  facet normal 0.773011 0.634393 0
    outer loop
      vertex -0.83147 -0.55557 -3.3
      vertex -0.707107 -0.707107 0
      vertex -0.707107 -0.707107 -3.3
    endloop
  endfacet
  facet normal 0.471393 0.881923 -0
    outer loop
      vertex -0.382683 -0.923879 -3.3
      vertex -0.55557 -0.83147 0
      vertex -0.382683 -0.923879 0
    endloop
  endfacet
  facet normal 0.471393 0.881923 0
    outer loop
      vertex -0.55557 -0.83147 0
      vertex -0.382683 -0.923879 -3.3
      vertex -0.55557 -0.83147 -3.3
    endloop
  endfacet
  facet normal 0.0980238 0.995184 -0
    outer loop
      vertex 0 -1 -3.3
      vertex -0.19509 -0.980784 0
      vertex 0 -1 0
    endloop
  endfacet
  facet normal 0.0980238 0.995184 0
    outer loop
      vertex -0.19509 -0.980784 0
      vertex 0 -1 -3.3
      vertex -0.19509 -0.980784 -3.3
    endloop
  endfacet
  facet normal 0.634393 0.773011 -0
    outer loop
      vertex -0.55557 -0.83147 -3.3
      vertex -0.707107 -0.707107 0
      vertex -0.55557 -0.83147 0
    endloop
  endfacet
  facet normal 0.634393 0.773011 0
    outer loop
      vertex -0.707107 -0.707107 0
      vertex -0.55557 -0.83147 -3.3
      vertex -0.707107 -0.707107 -3.3
    endloop
  endfacet
  facet normal -0.995184 0.0980238 0
    outer loop
      vertex 0.980784 -0.19509 -3.3
      vertex 1 0 0
      vertex 1 0 -3.3
    endloop
  endfacet
  facet normal -0.995184 0.0980238 0
    outer loop
      vertex 1 0 0
      vertex 0.980784 -0.19509 -3.3
      vertex 0.980784 -0.19509 0
    endloop
  endfacet
  facet normal -0.0980238 -0.995184 0
    outer loop
      vertex 0 1 -3.3
      vertex 0.19509 0.980784 0
      vertex 0 1 0
    endloop
  endfacet
  facet normal -0.0980238 -0.995184 -0
    outer loop
      vertex 0.19509 0.980784 0
      vertex 0 1 -3.3
      vertex 0.19509 0.980784 -3.3
    endloop
  endfacet
  facet normal -0.956941 -0.290281 0
    outer loop
      vertex 0.980784 0.19509 -3.3
      vertex 0.923879 0.382683 0
      vertex 0.923879 0.382683 -3.3
    endloop
  endfacet
  facet normal -0.956941 -0.290281 0
    outer loop
      vertex 0.923879 0.382683 0
      vertex 0.980784 0.19509 -3.3
      vertex 0.980784 0.19509 0
    endloop
  endfacet
  facet normal -0.290281 -0.956941 0
    outer loop
      vertex 0.19509 0.980784 -3.3
      vertex 0.382683 0.923879 0
      vertex 0.19509 0.980784 0
    endloop
  endfacet
  facet normal -0.290281 -0.956941 -0
    outer loop
      vertex 0.382683 0.923879 0
      vertex 0.19509 0.980784 -3.3
      vertex 0.382683 0.923879 -3.3
    endloop
  endfacet
  facet normal -0.471393 -0.881923 0
    outer loop
      vertex 0.382683 0.923879 -3.3
      vertex 0.55557 0.83147 0
      vertex 0.382683 0.923879 0
    endloop
  endfacet
  facet normal -0.471393 -0.881923 -0
    outer loop
      vertex 0.55557 0.83147 0
      vertex 0.382683 0.923879 -3.3
      vertex 0.55557 0.83147 -3.3
    endloop
  endfacet
  facet normal 0.0980238 -0.995184 0
    outer loop
      vertex -0.19509 0.980784 -3.3
      vertex 0 1 0
      vertex -0.19509 0.980784 0
    endloop
  endfacet
  facet normal 0.0980238 -0.995184 0
    outer loop
      vertex 0 1 0
      vertex -0.19509 0.980784 -3.3
      vertex 0 1 -3.3
    endloop
  endfacet
  facet normal 0.634393 -0.773011 0
    outer loop
      vertex -0.707107 0.707107 -3.3
      vertex -0.55557 0.83147 0
      vertex -0.707107 0.707107 0
    endloop
  endfacet
  facet normal 0.634393 -0.773011 0
    outer loop
      vertex -0.55557 0.83147 0
      vertex -0.707107 0.707107 -3.3
      vertex -0.55557 0.83147 -3.3
    endloop
  endfacet
  facet normal 0.881923 -0.471393 0
    outer loop
      vertex -0.923879 0.382683 0
      vertex -0.83147 0.55557 -3.3
      vertex -0.83147 0.55557 0
    endloop
  endfacet
  facet normal 0.881923 -0.471393 0
    outer loop
      vertex -0.83147 0.55557 -3.3
      vertex -0.923879 0.382683 0
      vertex -0.923879 0.382683 -3.3
    endloop
  endfacet
  facet normal 0.995184 -0.0980238 0
    outer loop
      vertex -1 0 0
      vertex -0.980784 0.19509 -3.3
      vertex -0.980784 0.19509 0
    endloop
  endfacet
  facet normal 0.995184 -0.0980238 0
    outer loop
      vertex -0.980784 0.19509 -3.3
      vertex -1 0 0
      vertex -1 0 -3.3
    endloop
  endfacet
  facet normal -0.956941 0.290281 0
    outer loop
      vertex 0.923879 -0.382683 -3.3
      vertex 0.980784 -0.19509 0
      vertex 0.980784 -0.19509 -3.3
    endloop
  endfacet
  facet normal -0.956941 0.290281 0
    outer loop
      vertex 0.980784 -0.19509 0
      vertex 0.923879 -0.382683 -3.3
      vertex 0.923879 -0.382683 0
    endloop
  endfacet
  facet normal -0.290281 0.956941 0
    outer loop
      vertex 0.382683 -0.923879 -3.3
      vertex 0.19509 -0.980784 0
      vertex 0.382683 -0.923879 0
    endloop
  endfacet
  facet normal -0.290281 0.956941 0
    outer loop
      vertex 0.19509 -0.980784 0
      vertex 0.382683 -0.923879 -3.3
      vertex 0.19509 -0.980784 -3.3
    endloop
  endfacet
  facet normal -0.773011 -0.634393 0
    outer loop
      vertex 0.83147 0.55557 -3.3
      vertex 0.707107 0.707107 0
      vertex 0.707107 0.707107 -3.3
    endloop
  endfacet
  facet normal -0.773011 -0.634393 0
    outer loop
      vertex 0.707107 0.707107 0
      vertex 0.83147 0.55557 -3.3
      vertex 0.83147 0.55557 0
    endloop
  endfacet
  facet normal -0.881923 -0.471393 0
    outer loop
      vertex 0.923879 0.382683 -3.3
      vertex 0.83147 0.55557 0
      vertex 0.83147 0.55557 -3.3
    endloop
  endfacet
  facet normal -0.881923 -0.471393 0
    outer loop
      vertex 0.83147 0.55557 0
      vertex 0.923879 0.382683 -3.3
      vertex 0.923879 0.382683 0
    endloop
  endfacet
  facet normal -0.634393 -0.773011 0
    outer loop
      vertex 0.55557 0.83147 -3.3
      vertex 0.707107 0.707107 0
      vertex 0.55557 0.83147 0
    endloop
  endfacet
  facet normal -0.634393 -0.773011 -0
    outer loop
      vertex 0.707107 0.707107 0
      vertex 0.55557 0.83147 -3.3
      vertex 0.707107 0.707107 -3.3
    endloop
  endfacet
  facet normal 0.471393 -0.881923 0
    outer loop
      vertex -0.55557 0.83147 -3.3
      vertex -0.382683 0.923879 0
      vertex -0.55557 0.83147 0
    endloop
  endfacet
  facet normal 0.471393 -0.881923 0
    outer loop
      vertex -0.382683 0.923879 0
      vertex -0.55557 0.83147 -3.3
      vertex -0.382683 0.923879 -3.3
    endloop
  endfacet
  facet normal 0.956941 -0.290281 0
    outer loop
      vertex -0.980784 0.19509 0
      vertex -0.923879 0.382683 -3.3
      vertex -0.923879 0.382683 0
    endloop
  endfacet
  facet normal 0.956941 -0.290281 0
    outer loop
      vertex -0.923879 0.382683 -3.3
      vertex -0.980784 0.19509 0
      vertex -0.980784 0.19509 -3.3
    endloop
  endfacet
  facet normal 0.773011 -0.634393 0
    outer loop
      vertex -0.83147 0.55557 0
      vertex -0.707107 0.707107 -3.3
      vertex -0.707107 0.707107 0
    endloop
  endfacet
  facet normal 0.773011 -0.634393 0
    outer loop
      vertex -0.707107 0.707107 -3.3
      vertex -0.83147 0.55557 0
      vertex -0.83147 0.55557 -3.3
    endloop
  endfacet
endsolid OpenSCAD_Model
