<?xml version="1.0" encoding="utf-8"?>
<!-- Generator: Adobe Illustrator 24.3.0, SVG Export Plug-In . SVG Version: 6.00 Build 0)  -->
<svg version="1.1" id="Vrstva_1" xmlns="http://www.w3.org/2000/svg" xmlns:xlink="http://www.w3.org/1999/xlink" x="0px" y="0px"
	 width="254.8px" height="113.2px" viewBox="0 0 254.8 113.2" style="enable-background:new 0 0 254.8 113.2;" xml:space="preserve"
	>
<style type="text/css">
	.st0{fill:#FFFFFF;}
</style>
<g>
	<g>
		<path class="st0" d="M0,4c3.5-0.6,10.6-1.2,17.3-1.2c8.2,0,13.2,0.8,17.6,3.3c4.1,2.2,7,6.2,7,11.7c0,5.2-3.1,10-9.8,12.6v0.2
			C39,32.3,44,37.5,44,45.1c0,5.5-2.5,9.7-6.2,12.7c-4.3,3.4-11.5,5.4-23.3,5.4C7.9,63.1,3,62.7,0,62.2V4z M13.3,26.7h4.4
			c7.1,0,10.8-2.9,10.8-7.3c0-4.5-3.4-6.9-9.5-6.9c-3,0-4.7,0.2-5.7,0.4V26.7z M13.3,53c1.3,0.2,2.9,0.2,5.2,0.2
			c6.1,0,11.4-2.4,11.4-8.6c0-5.9-5.4-8.3-12.1-8.3h-4.6V53z"/>
		<path class="st0" d="M52.7,33.6c0-6.3-0.1-10.5-0.4-14.2h11.4l0.5,7.9h0.4c2.2-6.3,7.4-9,11.6-9c1.2,0,1.8,0.1,2.8,0.3v12.6
			c-1.1-0.2-2.1-0.4-3.6-0.4c-4.9,0-8.3,2.6-9.2,6.8c-0.2,0.9-0.3,1.9-0.3,3v21.8H52.7V33.6z"/>
		<path class="st0" d="M100,7.5c0,3.7-2.7,6.7-7.2,6.7c-4.2,0-7-3-7-6.7c0-3.8,2.8-6.7,7.1-6.7S99.9,3.7,100,7.5z M86.2,62.5v-43
			h13.4v43H86.2z"/>
		<path class="st0" d="M110.2,50.9c2.5,1.5,7.6,3.2,11.5,3.2c4,0,5.7-1.3,5.7-3.5c0-2.3-1.3-3.3-6.2-5c-9-3-12.4-7.8-12.3-12.9
			c0-8.1,6.9-14.2,17.5-14.2c5,0,9.4,1.2,12.1,2.6l-2.3,9.2c-1.9-1.1-5.7-2.5-9.3-2.5c-3.3,0-5.1,1.3-5.1,3.4s1.7,3.2,7,5
			c8.2,2.8,11.5,7,11.6,13.3c0,8.1-6.2,14-18.6,14c-5.6,0-10.6-1.3-13.9-3.1L110.2,50.9z"/>
		<path class="st0" d="M161.8,37.6h0.2c1-1.8,2-3.6,3.1-5.2l8.7-12.9h16.1l-15.4,17.4l17.6,25.6h-16.5l-10.5-17.7l-3.3,4.2v13.5
			h-13.4V0h13.4V37.6z"/>
		<path class="st0" d="M205.2,45.2c0.4,5.5,5.9,8.2,12.1,8.2c4.6,0,8.3-0.6,11.9-1.8l1.8,9.1c-4.4,1.8-9.8,2.7-15.6,2.7
			c-14.6,0-23-8.4-23-21.9c0-10.9,6.8-23,21.7-23c13.9,0,19.2,10.8,19.2,21.5c0,2.3-0.3,4.3-0.4,5.3H205.2z M221,36.1
			c0-3.3-1.4-8.7-7.6-8.7c-5.6,0-7.9,5.2-8.3,8.7H221z"/>
		<path class="st0" d="M241.4,0h13.4v62.5h-13.4V0z"/>
	</g>
	<g>
		<path class="st0" d="M19.8,90.9c0-1.6-1.2-2.5-3.4-2.5c-1.1,0-1.7,0.1-2,0.1v4.9H16C18.5,93.5,19.8,92.4,19.8,90.9z"/>
		<path class="st0" d="M16,96.9h-1.6v6c0.5,0.1,1,0.1,1.9,0.1c2.2,0,4.1-0.8,4.1-3.1C20.3,97.8,18.4,96.9,16,96.9z"/>
		<path class="st0" d="M0,78.2v35h35v-35H0z M23.2,104.6c-1.5,1.2-4.1,1.9-8.3,1.9c-2.4,0-4.1-0.2-5.2-0.3V85.4
			c1.3-0.2,3.8-0.4,6.2-0.4c2.9,0,4.7,0.3,6.3,1.2c1.5,0.8,2.5,2.2,2.5,4.2c0,1.9-1.1,3.6-3.5,4.5v0.1c2.4,0.6,4.2,2.5,4.2,5.2
			C25.4,102,24.5,103.5,23.2,104.6z"/>
	</g>
	<g>
		<path class="st0" d="M60.4,88.6c-1.2,0-1.8,0.1-2.2,0.2v5.8h1.9c2.4,0,3.8-1.2,3.8-3C63.9,89.6,62.6,88.6,60.4,88.6z"/>
		<path class="st0" d="M44,78.2v35h35v-35H44z M64.5,106.4c-0.3-0.6-0.8-2.3-1.4-4.9c-0.6-2.7-1.5-3.4-3.5-3.4h-1.4v8.3h-4.7V85.5
			c1.5-0.3,3.8-0.4,6.4-0.4c3.1,0,5.3,0.5,6.8,1.7c1.3,1,2,2.5,2,4.5c0,2.7-1.9,4.5-3.7,5.2v0.1c1.5,0.6,2.3,2,2.8,3.9
			c0.7,2.4,1.3,5.2,1.7,6H64.5z"/>
	</g>
	<path class="st0" d="M87.9,78.2v35h35v-35H87.9z M107.8,106.3H103V85.1h4.8V106.3z"/>
	<path class="st0" d="M131.9,78.2v35h35v-35H131.9z M152.7,102.6c1.5,0,3-0.3,4-0.7l0.7,3.8c-0.8,0.4-2.9,0.9-5.4,0.9
		c-7.3,0-11.1-4.6-11.1-10.6c0-7.2,5.2-11.2,11.6-11.2c2.5,0,4.4,0.5,5.2,0.9l-1,3.8c-0.9-0.4-2.3-0.8-4-0.8c-3.8,0-6.7,2.3-6.7,7
		C146,100,148.5,102.6,152.7,102.6z"/>
	<path class="st0" d="M175.8,78.2v35h35v-35H175.8z M196.4,106.3l-5.2-9.1l-1.8,2.2v6.9h-4.7V85.1h4.7v9.4h0.1
		c0.5-0.8,1-1.6,1.5-2.3l4.8-7h5.9l-7,9l7.4,12.2H196.4z"/>
	<path class="st0" d="M219.8,78.2v35h35v-35H219.8z M236,106.6c-2.4,0-4.8-0.7-6-1.3l1-3.9c1.3,0.7,3.3,1.3,5.3,1.3
		c2.2,0,3.4-0.9,3.4-2.3c0-1.3-1-2.1-3.6-3c-3.5-1.3-5.8-3.2-5.8-6.3c0-3.6,3-6.3,8-6.3c2.4,0,4.1,0.5,5.4,1.1l-1.1,3.8
		c-0.8-0.4-2.4-1-4.4-1c-2.1,0-3.1,1-3.1,2c0,1.4,1.2,1.9,3.9,3c3.7,1.4,5.5,3.3,5.5,6.3C244.5,103.6,241.8,106.6,236,106.6z"/>
</g>
</svg>
